ply
format ascii 1.0
comment Created in Blender version 3.6.4
element vertex 26
property float x
property float y
property float z
property float nx
property float ny
property float nz
property float s
property float t
element face 26
property list uchar uint vertex_indices
end_header
0 2.6090002 0 0 -1 8.3803394e-07 0.7660872 0.5526656
-0.36800402 2.9959497 0.50652003 -0.5257306 -0.44721383 0.723607 0.6449925 0.52286637
-0.5954481 2.9959497 -0.19346952 -0.8506533 -0.44721213 -0.2763879 0.8418907 0.33128682
0.36800402 2.9959497 0.50652003 0.5257306 -0.4472139 0.723607 0.60803074 0.79587877
0 2.9959497 -0.62609756 0 -0.44721153 -0.89442825 0.96344936 0.40123126
0.5954481 2.9959497 -0.19346952 0.8506533 -0.4472122 -0.27638793 0.8416727 0.64077806
0 3.6220508 0.62609756 0 0.44721153 0.89442825 0.50600564 0.49428308
-0.5954481 3.6220508 0.19346952 -0.8506533 0.44721216 0.27638793 0.704352 0.31297976
-0.36800402 3.6220508 -0.50652003 -0.5257306 0.4472139 -0.72360694 0.79145527 0.046412975
0.5954481 2.9959497 -0.19346952 0.8506533 -0.4472122 -0.27638793 0.35179207 0.26814616
0 2.9959497 -0.62609756 0 -0.44721153 -0.89442825 0.47356877 0.028599411
0.36800402 3.6220508 -0.50652003 0.5257306 0.4472139 -0.72360694 0.5382167 0.15491244
0.36800402 2.9959497 0.50652003 0.5257306 -0.4472139 0.723607 0.118150145 0.42324704
0.5954481 3.6220508 0.19346952 0.85065323 0.4472122 0.2763879 0.40614995 0.39580685
0 4.0090003 0 0 1 -8.165459e-07 0.5992601 0.26365823
1.0000001 0 0 0.8999471 -0.43599886 2.4163015e-07 0.4984935 0.5027367
0 2.5000002 0 -5.150958e-08 1 0 0.24900003 0.7522302
-4.3711395e-08 0 1.0000001 -3.0203772e-08 -0.4359989 0.8999472 -0.00049349666 0.50273675
-1.0000001 0 -8.742279e-08 -0.8999471 -0.4359989 -2.4291313e-07 -0.00049346685 1.0017238
-4.3711395e-08 0 1.0000001 -3.0203772e-08 -0.4359989 0.8999472 0.7633698 0.99398905
1.1924882e-08 0 -1.0000001 0 -0.43599886 -0.8999471 0.99752307 0.7598357
1.0000001 0 0 0.8999471 -0.43599886 2.4163015e-07 0.9975231 0.99398893
1.1924882e-08 0 -1.0000001 0 -0.43599886 -0.8999471 0.49849355 1.0017238
-4.3711395e-08 0 1.0000001 -3.0203772e-08 -0.4359989 0.8999472 0.99646366 0.7612665
-1.0000001 0 -8.742279e-08 -0.8999471 -0.4359989 -2.4291313e-07 0.99646366 0.9954198
1.1924882e-08 0 -1.0000001 0 -0.43599886 -0.8999471 0.7623104 0.9954198
3 0 1 2
3 1 0 3
3 0 2 4
3 0 4 5
3 0 5 3
3 1 3 6
3 2 1 7
3 4 2 8
3 9 10 11
3 12 9 13
3 1 6 7
3 2 7 8
3 10 8 11
3 9 11 13
3 12 13 6
3 7 6 14
3 8 7 14
3 11 8 14
3 13 11 14
3 6 13 14
3 15 16 17
3 17 16 18
3 19 20 21
3 18 16 22
3 22 16 15
3 23 24 25
