ply
format ascii 1.0
comment Created in Blender version 3.6.4
element vertex 8
property float x
property float y
property float z
property float nx
property float ny
property float nz
property float s
property float t
element face 6
property list uchar uint vertex_indices
end_header
-0.10000001 -0.0025735903 -0.10000001 0.5773503 0.5773503 0.5773503 0.5 0.5
-0.10000001 0.19742644 0.10000001 1 0 0 -5.9604645e-08 1
-0.10000001 -0.0025735903 0.10000001 0.70710677 0.70710677 0 0 0.49999997
0.10000001 -0.0025735903 -0.10000001 0 0.70710677 0.70710677 1 0.50000006
-0.10000001 0.19742644 -0.10000001 0.70710677 0 0.70710677 0.49999997 1
0.10000001 -0.0025735903 0.10000001 0 1 0 1 0
0.10000001 0.19742644 -0.10000001 0 0 1 1 1
-0.10000001 -0.0025735903 0.10000001 0.70710677 0.70710677 0 0.50000006 0
3 0 1 2
3 3 4 0
3 0 5 3
3 0 4 1
3 3 6 4
3 0 7 5
