ply
format ascii 1.0
comment Created in Blender version 3.6.4
element vertex 42
property float x
property float y
property float z
property float nx
property float ny
property float nz
property uchar red
property uchar green
property uchar blue
property uchar alpha
property float s
property float t
element face 36
property list uchar uint vertex_indices
end_header
0 0.05 -0.05 -0.057735033 0.5773503 -0.5773503 0 254 0 255 0.625 0
1 -0.05 -0.05 0.057735033 -0.5773503 -0.5773503 0 254 0 255 0.375 0.25
0 -0.05 -0.05 -0.057735033 -0.5773503 -0.5773503 0 254 0 255 0.375 0
1 0.05 -0.05 0.057735033 0.5773503 -0.5773503 0 254 0 255 0.625 0.25
1 -0.05 0.05 0.057735033 -0.5773503 0.5773503 0 254 0 255 0.375 0.5
1 0.05 0.05 0.057735033 0.5773503 0.5773503 0 254 0 255 0.625 0.5
0 -0.05 0.05 -0.057735033 -0.5773503 0.5773503 0 254 0 255 0.375 0.75
0 0.05 0.05 -0.057735033 0.5773503 0.5773503 0 254 0 255 0.625 0.75
0 -0.05 -0.05 -0.057735033 -0.5773503 -0.5773503 0 254 0 255 0.375 1
0 -0.05 -0.05 -0.057735033 -0.5773503 -0.5773503 0 254 0 255 0.125 0.75
1 -0.05 -0.05 0.057735033 -0.5773503 -0.5773503 0 254 0 255 0.125 0.5
1 0.05 -0.05 0.057735033 0.5773503 -0.5773503 0 254 0 255 0.875 0.5
0 0.05 -0.05 -0.057735033 0.5773503 -0.5773503 0 254 0 255 0.625 1
0 0.05 -0.05 -0.057735033 0.5773503 -0.5773503 0 254 0 255 0.875 0.75
-0.05 0.05 0 -0.5773503 0.5773503 -0.057735033 254 0 0 255 0.625 0
0.05 -0.05 0 0.5773503 -0.5773503 -0.057735033 254 0 0 255 0.375 0.25
-0.05 -0.05 0 -0.5773503 -0.5773503 -0.057735033 254 0 0 255 0.375 0
0.05 0.05 0 0.5773503 0.5773503 -0.057735033 254 0 0 255 0.625 0.25
0.05 -0.05 1 0.5773503 -0.5773503 0.057735033 254 0 0 255 0.375 0.5
0.05 0.05 1 0.5773503 0.5773503 0.057735033 254 0 0 255 0.625 0.5
-0.05 -0.05 1 -0.5773503 -0.5773503 0.057735033 254 0 0 255 0.375 0.75
-0.05 0.05 1 -0.5773503 0.5773503 0.057735033 254 0 0 255 0.625 0.75
-0.05 -0.05 0 -0.5773503 -0.5773503 -0.057735033 254 0 0 255 0.375 1
-0.05 -0.05 0 -0.5773503 -0.5773503 -0.057735033 254 0 0 255 0.125 0.75
0.05 -0.05 0 0.5773503 -0.5773503 -0.057735033 254 0 0 255 0.125 0.5
0.05 0.05 0 0.5773503 0.5773503 -0.057735033 254 0 0 255 0.875 0.5
-0.05 0.05 0 -0.5773503 0.5773503 -0.057735033 254 0 0 255 0.625 1
-0.05 0.05 0 -0.5773503 0.5773503 -0.057735033 254 0 0 255 0.875 0.75
-0.05 1 -0.05 -0.5773503 0.057735033 -0.5773503 0 0 254 255 0.625 0
0.05 0 -0.05 0.5773503 -0.057735033 -0.5773503 0 0 254 255 0.375 0.25
-0.05 0 -0.05 -0.5773503 -0.057735033 -0.5773503 0 0 254 255 0.375 0
0.05 1 -0.05 0.5773503 0.057735033 -0.5773503 0 0 254 255 0.625 0.25
0.05 0 0.05 0.5773503 -0.057735033 0.5773503 0 0 254 255 0.375 0.5
0.05 1 0.05 0.5773503 0.057735033 0.5773503 0 0 254 255 0.625 0.5
-0.05 0 0.05 -0.5773503 -0.057735033 0.5773503 0 0 254 255 0.375 0.75
-0.05 1 0.05 -0.5773503 0.057735033 0.5773503 0 0 254 255 0.625 0.75
-0.05 0 -0.05 -0.5773503 -0.057735033 -0.5773503 0 0 254 255 0.375 1
-0.05 0 -0.05 -0.5773503 -0.057735033 -0.5773503 0 0 254 255 0.125 0.75
0.05 0 -0.05 0.5773503 -0.057735033 -0.5773503 0 0 254 255 0.125 0.5
0.05 1 -0.05 0.5773503 0.057735033 -0.5773503 0 0 254 255 0.875 0.5
-0.05 1 -0.05 -0.5773503 0.057735033 -0.5773503 0 0 254 255 0.625 1
-0.05 1 -0.05 -0.5773503 0.057735033 -0.5773503 0 0 254 255 0.875 0.75
3 0 1 2
3 3 4 1
3 5 6 4
3 7 8 6
3 4 9 10
3 11 7 5
3 0 3 1
3 3 5 4
3 5 7 6
3 7 12 8
3 4 6 9
3 11 13 7
3 14 15 16
3 17 18 15
3 19 20 18
3 21 22 20
3 18 23 24
3 25 21 19
3 14 17 15
3 17 19 18
3 19 21 20
3 21 26 22
3 18 20 23
3 25 27 21
3 28 29 30
3 31 32 29
3 33 34 32
3 35 36 34
3 32 37 38
3 39 35 33
3 28 31 29
3 31 33 32
3 33 35 34
3 35 40 36
3 32 34 37
3 39 41 35
