ply
format ascii 1.0
comment Created in Blender version 3.6.4
element vertex 31
property float x
property float y
property float z
property float nx
property float ny
property float nz
property uchar red
property uchar green
property uchar blue
property uchar alpha
property float s
property float t
element face 26
property list uchar uint vertex_indices
end_header
0 2.609 0 0 -1 8.3803394e-07 0 1 255 255 0.00013659838 0.8180941
-0.368004 2.9959495 0.50652 -0.5257306 -0.44721383 0.723607 0 1 255 255 0.15755458 0.7272099
-0.595448 2.9959495 -0.19346951 -0.8506533 -0.44721213 -0.2763879 0 1 255 255 0.1575546 0.9089782
0 2.609 0 0 -1 8.3803394e-07 0 1 255 255 0.00013659043 0.6363257
0.368004 2.9959495 0.50652 0.5257306 -0.4472139 0.723607 0 1 255 255 0.15755458 0.54544157
0 2.609 0 0 -1 8.3803394e-07 0 1 255 255 0.0001365666 0.09102075
-0.595448 2.9959495 -0.19346951 -0.8506533 -0.44721213 -0.2763879 0 1 255 255 0.15755455 0.00013656964
0 2.9959495 -0.6260975 0 -0.44721153 -0.89442825 0 1 255 255 0.15755457 0.18190491
0 2.609 0 0 -1 8.3803394e-07 0 1 255 255 0.00013657454 0.2727891
0.595448 2.9959495 -0.19346951 0.8506533 -0.4472122 -0.27638793 0 1 255 255 0.15755457 0.36367324
0 2.609 0 0 -1 8.3803394e-07 0 1 255 255 0.00013658249 0.45455742
0 3.6220505 0.6260975 0 0.44721153 0.89442825 0 1 255 255 0.31497157 0.6363257
-0.595448 3.6220505 0.19346951 -0.8506533 0.44721216 0.27638793 0 1 255 255 0.31497157 0.8180941
-0.368004 3.6220505 -0.50652 -0.5257306 0.4472139 -0.72360694 0 1 255 255 0.31497154 0.09102073
0.368004 3.6220505 -0.50652 0.5257306 0.4472139 -0.72360694 0 1 255 255 0.31497154 0.27278906
0.595448 3.6220505 0.19346951 0.85065323 0.4472122 0.2763879 0 1 255 255 0.31497154 0.45455742
-0.368004 3.6220505 -0.50652 -0.5257306 0.4472139 -0.72360694 0 1 255 255 0.31497157 0.9998634
0 4.0090003 0 0 1 -8.165459e-07 0 1 255 255 0.47238955 0.72720987
0 4.0090003 0 0 1 -8.165459e-07 0 1 255 255 0.47238958 0.9089782
0 4.0090003 0 0 1 -8.165459e-07 0 1 255 255 0.47238955 0.1819049
0 4.0090003 0 0 1 -8.165459e-07 0 1 255 255 0.47238955 0.36367324
0 4.0090003 0 0 1 -8.165459e-07 0 1 255 255 0.47238955 0.54544157
1 0 0 0.8999471 -0.43599886 2.4163015e-07 0 1 255 255 0.8119813 0.33945516
0 2.5 0 -5.150958e-08 1 0 0 1 255 255 0.642322 0.16979587
-4.3711392e-08 0 1 -3.0203772e-08 -0.4359989 0.8999472 0 1 255 255 0.8119813 0.00013659486
-1 0 -8.7422784e-08 -0.8999471 -0.4359989 -2.4291313e-07 0 1 255 255 0.47266275 0.00013660162
-4.3711392e-08 0 1 -3.0203772e-08 -0.4359989 0.8999472 0 1 255 255 0.81198126 0.6790469
1.19248815e-08 0 -1 0 -0.43599886 -0.8999471 0 1 255 255 0.47266275 0.33972836
1 0 0 0.8999471 -0.43599886 2.4163015e-07 0 1 255 255 0.47266272 0.6790469
1.19248815e-08 0 -1 0 -0.43599886 -0.8999471 0 1 255 255 0.47266275 0.33945513
-1 0 -8.7422784e-08 -0.8999471 -0.4359989 -2.4291313e-07 0 1 255 255 0.81198126 0.3397284
3 0 1 2
3 1 3 4
3 5 6 7
3 8 7 9
3 10 9 4
3 1 4 11
3 2 1 12
3 7 6 13
3 9 7 14
3 4 9 15
3 1 11 12
3 2 12 16
3 7 13 14
3 9 14 15
3 4 15 11
3 12 11 17
3 16 12 18
3 14 13 19
3 15 14 20
3 11 15 21
3 22 23 24
3 24 23 25
3 26 27 28
3 25 23 29
3 29 23 22
3 26 30 27
